<?xml version="1.0" encoding="utf-8"?>
<!-- Generator: Adobe Illustrator 19.2.1, SVG Export Plug-In . SVG Version: 6.00 Build 0)  -->
<svg version="1.1" id="Primer_plano" xmlns="http://www.w3.org/2000/svg" xmlns:xlink="http://www.w3.org/1999/xlink" x="0px"
	 y="0px" viewBox="0 0 400 125" style="enable-background:new 0 0 400 125;" xml:space="preserve">
<style type="text/css">
	.st0{fill:#FFFFFF;}
</style>
<g>
	<g>
		<g>
			<path class="st0" d="M250.7,104.7c-2.1-0.3-4.6-2.8-7.7-7.3c-1.8-2.9-3.6-5.9-5.4-8.9c5.6-1,8.3-4.2,8.3-9.1c0-3-1.4-5.4-4-6.8
				c-2.1-1.2-4.8-1.8-8-1.8c-1.3,0-3.2,0.1-5.7,0.2c-5.7,0.2-10.3,0-12-0.2l-0.4,0v1.1c0,0,5.7,0.9,5.7,2.8c0.1,0.3,0.1,2.1,0.1,4.5
				v19.8c0,1.8-0.2,3-0.4,3.6c-0.4,1.3-4.6,2.3-4.6,2.3l-0.2,1.3l0.4,0c2.8-0.2,5.6-0.3,8.3-0.3c2.7,0,5.3,0.1,7.8,0.3l0.4,0v-1.2
				c0,0-4.1-1.3-5.2-2.1c-0.6-0.4-0.7-1.4-0.7-2.9c0-0.3,0-1.2,0-2.3c0-1.1,0.1-2.1,0.1-2.9v-5.5l3.6,0c4.3,5.7,7.4,10.9,10.8,16.6
				l0.1,0.2c0,0,3-0.2,4.4-0.2c1.4,0,3,0.1,4.2,0.2l0.4,0l0-1.4L250.7,104.7z M231,86.2h-3.5V73.9c0,0,4.9-0.1,4.9-0.1
				c5,0.1,7.3,2,7.4,6.2c0,2.5-0.9,4.1-2.6,5.1C235.9,85.8,233.8,86.2,231,86.2z"/>
			<path class="st0" d="M31.5,89.6c-1.5-1-3.1-1.6-5.2-2c1.5-0.4,2.7-1,4.1-1.8c2.3-1.5,3.5-4,3.5-6c0-3.1-1.3-5.6-3.8-7.2
				c-2.1-1.4-4.8-2-8.1-2c0,0-2.9,0.1-8.5,0.2c-1,0-1.9,0-2.8,0c-3.4,0-6.1-0.2-6.1-0.2v1.2c0,0,5.3,0.7,5.7,3.2
				c0.1,0.3,0.2,25.9-0.2,26.8c-1,2.2-5.5,2.9-5.5,2.9v1.3c0,0,3.3-0.3,7-0.3c0.8,0,1.7,0,2.6,0c6.2,0.1,9.3,0.2,9.3,0.2
				c3.2,0,5.9-0.7,8.1-2.3c2.5-1.7,3.8-4.2,3.8-7.3C35.4,93.5,34.1,91.2,31.5,89.6z M15.7,79.2c0-1.7,0-3.3,0.1-5.5
				c1.1-0.1,2.6-0.1,4.2-0.1c5.3,0.1,7.6,1.7,7.7,6.2c0,4.2-2.5,5.9-8.3,6h-3.7L15.7,79.2z M19.8,103.1L19.8,103.1
				C19.9,103.1,19.9,103.1,19.8,103.1C19.9,103.1,19.9,103.1,19.8,103.1z M19.6,102.8C19.5,102.8,19.5,102.8,19.6,102.8
				c-0.1,0-0.1,0-0.1,0C19.5,102.8,19.5,102.8,19.6,102.8L19.6,102.8c-0.2,0-1.4-0.1-3.7-0.1c-0.1-1.1-0.1-2-0.1-3V89.5h3.4
				c6.9,0,10,2.4,10.1,7.1C29.2,101.2,26.2,102.8,19.6,102.8z"/>
			<path class="st0" d="M62.8,70c-5.4,0-9.8,1.7-13,5.2c-3.2,3.5-4.8,7.9-4.8,13.4c0,5.1,1.5,9.4,4.6,12.8c3.2,3.5,7.3,5.3,12.3,5.2
				h0c5.4,0,9.7-2,12.9-5.9c3-3.6,4.5-8.2,4.5-13.7h0c0-5-1.5-9.1-4.4-12.3C71.8,71.7,67.7,70,62.8,70z M72.7,89.7
				c0,3.9-0.8,7-2.2,9.5c-1.8,2.9-4.4,4.4-8,4.4c-4,0-6.9-1.9-8.8-6c-1.4-3-2.1-6.8-2.1-11.4c0-3.6,0.9-6.6,2.6-9c2-2.7,4.6-4,8-4
				C69.2,73.2,72.6,78.5,72.7,89.7L72.7,89.7z"/>
			<g>
				<path class="st0" d="M107.9,102.2h-10V79.8c0-2.7,0-4.1,0.1-4.8c0.2-2.3,6.1-3.2,6.1-3.2v-1.1c0,0-6.1,0.4-9,0.4
					c-2.8,0-8.6-0.4-8.6-0.4v1.1c0,0,5.7,1,5.7,3.1c0.1,0.4,0.1,2,0.1,4.4v19c0,1.9,0.1,2.8-0.3,3.6c-1.1,2.1-5.5,2.7-5.5,2.7v1.4
					l0.4,0c3.7-0.2,7.8-0.3,12.3-0.3c4.5,0,9.4,0.1,14.6,0.3l0.3,0l0.5-9.4h-1.5C113.1,96.7,112.4,102.4,107.9,102.2z"/>
			</g>
			<g>
				<path class="st0" d="M138.2,61.3L138.2,61.3c0-1.6-1.4-2.7-2.7-2.7c-1,0-1.8,0.6-2.6,1.3l-7.4,8.6h2.7l8.4-4.8
					C137.7,63,138.2,62.2,138.2,61.3L138.2,61.3z"/>
				<path class="st0" d="M129.7,71.1c-2,0-4.7-0.1-8.2-0.4l-0.4,0v1.2c0,0,4.8,1.1,5.4,3.5c0.3,1.2,0.2,3.3,0.2,5.5
					c0,0,0.2,8.2,0.1,12.5c-0.1,5.9-0.3,8.6-1.8,9.8c-1.3,1.1-4,1.4-4,1.4v1.4l0.4,0c3.2-0.3,5.9-0.4,8.2-0.4c1.9,0,4.6,0.1,7.9,0.4
					l0.4,0v-1.4c0,0-2.6-0.5-4-1.5c-1-0.8-1.7-3.8-1.7-9.7c0-0.8,0.1-12.1,0.1-12.5c0.1-2.2,0-4.3,0.2-5.5c0.3-2.8,5.4-3.5,5.4-3.5
					v-1.2l-0.4,0C134.1,71,131.5,71.1,129.7,71.1z"/>
			</g>
			<g>
				<path class="st0" d="M178,71.9l0.3-0.1v-1.2l-0.4,0.1c-1.6,0.2-3.3,0.3-5.1,0.3c-1.8,0-3.7-0.1-5.8-0.3l-0.4,0v1.1l0.2,0.1
					c1.4,0.5,3.5,1.1,3.4,1.8c-0.6,3.2-6.4,17.9-7.9,21.5c-1.1-2.7-8.5-20.9-8.5-21.3c0,0-0.4-1,4-2l0.3-0.1v-1.2
					c0,0-4.9,0.3-7.3,0.4c-5.9,0-7.6-0.4-7.6-0.4v1.1c0,0,3.5,0.9,4.5,3.2c3.6,8.2,7.8,18.9,12.3,31.5l0.1,0.2h1.7l0.1-0.2
					c3.3-9.1,10.3-27.3,12.4-31.6C175,73.3,176.2,72.3,178,71.9z"/>
			</g>
			<path class="st0" d="M195.7,69.8l-0.1-0.2h-2.5l-0.1,0.2c-5.5,13.1-7.3,17-12,27.9c-0.7,1.6-1.1,2.8-1.8,4.2
				c-0.9,1.8-4.3,2.8-4.3,2.8v1.4l0.4,0c2-0.2,4-0.3,6-0.3c2,0,4.1,0.1,6.2,0.3l0.4,0v-1.4l-4.5-1.7c1.5-3.9,2.5-6.4,3.4-8.5l5.9,0
				l6.6,0.1c0.9,2.1,1.8,4.9,2.9,8.5c-1.5,0.6-3.2,1.1-4.9,1.5l-0.3,0.1v1.4l0.4,0c2.4-0.2,4.9-0.3,7.6-0.3c2.6,0,5.4,0.1,8.2,0.3
				l0.4,0v-1.4c0,0-3.1-0.8-4.1-1.9c-0.8-0.8-1.9-4.1-1.9-4.1C200.1,81.1,197.5,74.4,195.7,69.8z M187.7,92l5.3-13.4l5.1,13.4
				L187.7,92z"/>
		</g>
		<g>
			<g>
				<path class="st0" d="M306.6,36.5c4.9-2.4,10.5-3.8,15.8-3.8c-2.6-5.7-3.5-10.3-3.5-10.3s-6.4-1.4-6.8-2.9c0,0,0.3-5.3,6.7-10.3
					h-32.4v45.6C288.7,48.9,294.4,42.5,306.6,36.5z M286.5,67.1v12.6c1.6-1.1,3.4-2.3,5.5-3.5C290.6,74.6,288,71.3,286.5,67.1z
					 M335,41c-1.5-1.5-3.3-2.5-5.4-3.2c1.6,2.8,3.6,5.6,6.1,7.9C336,43.4,335.7,41.7,335,41z M382.4,69.5V47.4
					c-3.5-2.3-9.1-3.1-17.1-1.9c6.7-2.9,12.5-4.1,17.1-4V9.2h-55.2c-3.2,1.7-6.2,4.3-8.7,8.2c-0.2,0.3,4.9,2.7,4.9,2.7
					c0,0,0.9,6.1,3.9,12.9c4.6,0.8,8.7,2.9,11.4,6.6c0.8,1.1,1.5,4.2,0.6,8.7c0.3,0.2,0.6,0.4,0.9,0.6c5.9-1.7,10.2-7.9,10.2-7.9
					c0,0-0.5,7.5-9.9,11.5c-0.7-0.3-1.3-0.7-1.9-1.1c-2,6.5-7.1,14.9-18.3,23.9c-8.3-2.7-9.8-7.6-9.8-7.6C314.1,72,320,72,320,72
					c8.9-6.9,13.5-16.2,15.1-22.8c-4.7-3.6-8.1-8-10.5-12.2c-4.9-0.2-10.6,1.1-16.2,3.7c-27.8,12.5-19,30.8-16.1,35.5
					c2.6-1.4,5.6-2.9,9-4.4c-7.3,4.3-11.9,8.5-14.7,12.5v21.8h66.7C367.5,92,377.3,79.5,382.4,69.5z M335.7,12.5
					c13.2-4.8,21.9,2,21.9,2s-7.5-1.5-14.5,0.3L335.7,12.5z M300.2,67.4c0,0-12.1-12.9,18.7-21C297.2,57.1,300.2,67.4,300.2,67.4z
					 M307.6,55c0,0,4.6,14.2-7,21.4C300.6,76.4,306.1,67.1,307.6,55z M308.6,105.9h-7.9c0,0,9.8-16.7,27.8-19.5
					C328.5,86.4,315.2,90.9,308.6,105.9z M332.2,66.8c6.4-5.5,13.8-4.1,16.2-0.9c3.5,4.7,1.2,9.8-3,13.5c0,0,5.2-5.7,1.1-11.1
					c-1.7-2.3-7.1-3.5-11.8,0.5c-4.7,4-7.5,12.5,1.2,15.9C325.7,85.1,324,73.8,332.2,66.8z M340.4,105.8l-7.6,0
					c25.9-13.4,15.4-27.6,15.4-27.6S363.6,92,340.4,105.8z M348.8,21.3l-6.7-2.6c12.6-1.8,15.4,2.3,15.4,2.3S354.7,20.2,348.8,21.3z
					 M356,25.6c1,10.5,8.1,20.5,8.1,20.5s-7-3.9-9.2-9.6C352.6,30.6,356,25.6,356,25.6z M358.4,105.9h24V82.4
					C376.6,89.8,368.6,97.7,358.4,105.9z M354.5,9.2c0,0-11.2-10.4-27.3-4.4c-3.5,1.3-6.2,2.8-8.3,4.4h8.3
					C339.4,2.6,354.5,9.2,354.5,9.2z M286.5,84.1v-4.5c-21.7,15.4,0,26.3,0,26.3S278,96.2,286.5,84.1z M335.2,122.1
					c8.7-5.4,16.4-10.9,23.1-16.3h-5.1C347.9,111.1,341.9,116.5,335.2,122.1z M382.4,41.5v5.9c5.5,3.7,5.4,11.5,0,22.1v12.9
					C400.8,59.3,398.7,41.9,382.4,41.5z M286.5,67.1V54.7C284.8,59.3,285.3,63.5,286.5,67.1z"/>
			</g>
		</g>
		<path class="st0" d="M38.1,50.9c-0.1,0-5.9-0.1-6.2-0.1c-0.1-1.8-0.1-2.7-0.1-3.2v-3.1h2.6c0.4,0,0.8,0,1.3,0c0.5,0,1.3,0,1.4,0
			c0.6,0,1.4,0.5,1.8,2.4l0,0.1h0.5l0-0.2c0-1.1,0-2.2,0-3.2c0-1,0-2.1,0-3l0-0.2h-0.5l0,0.1c-0.3,1.6-1.1,2.2-1.7,2.2
			c-0.1,0-1,0-1.5,0c-0.5,0-0.9,0-1.3,0h-2.6v-2.8c0-0.5,0-1.3,0.1-2.7l3.6,0c0.3,0,0.7,0,1.2,0c0.4,0,1,0,1.1,0
			c0.6,0,1.7,0.2,2,2.4l0,0.1h0.5l0-0.2c0-0.4,0-0.7,0-1.1c0-0.9,0-1.9,0.1-2.9l0-0.2l-0.2,0c-2.3,0.1-4.7,0.2-7.1,0.2
			s-4.7-0.1-6.9-0.2l-0.2,0v0.6c0,0,2.8,0.4,2.9,1.4c0,0.2,0,1.1,0,2.3c0,0,0.2,5.3,0,8.6c-0.1,1.1,0.1,2.5-0.2,2.9
			c-0.6,1-2.7,1.2-2.7,1.2v0.6l0.2,0c2.7-0.2,5.5-0.2,7.7-0.2c2.3,0,4.4,0.1,6.4,0.2l0.2,0v-0.2c0-1.4,0-2.9,0.1-4.4l0-0.2h-0.5
			C40.1,48.1,39.7,50.9,38.1,50.9z M58.7,44.6c-1.2,0-2.8-0.1-4-0.1l-0.2,0V45c0,0,2.8,0.4,2.8,1.7v3.2l0,0.9
			c-0.7,0.3-1.4,0.4-2.3,0.5c-2.2,0.1-3.9-0.6-4.8-1.8c-1.2-1.5-1.7-3.4-1.7-5.4c-0.1-2,0.5-3.8,1.6-5.2c1.1-1.4,2.9-2,5.2-2.1
			c1.5,0,2.1,0.2,2.6,0.6c0.5,0.5,1.1,2.5,1.1,2.5h0.5l0-0.2c0-0.8-0.1-1.5-0.1-2.2c0-0.7,0-1.4,0.1-2.1l0-0.1l-0.1,0
			c-1.2-0.2-2.5-0.4-3.8-0.4c-2.8,0-5.5,1-7.3,2.5c-2.1,1.9-3.3,4.1-3.3,6.9c0,2.8,1,5,3,6.6c1.8,1.5,4.1,2.2,6.9,2.2
			c1.8,0,3.7-0.3,5.2-0.8l0.2-0.1l0-0.1c0-0.7-0.1-2.7-0.1-5.5c0-1.5,2.1-1.8,2.1-1.8v-0.5l-0.2,0C60.9,44.6,59.9,44.6,58.7,44.6z
			 M20.7,45.3c-1.1-1.2-3.9-2.4-5.1-3c-1.4-0.8-2.1-1.7-2.1-2.7c0-0.8,0.5-2.2,2.1-2.6c0.3-0.1,2.3-0.6,3.4,0.3
			c0.9,0.7,0.9,2.7,0.9,2.7l0.5,0l0.2-4c0,0-1.8-0.9-4.1-0.9c-1.6,0-3,0.4-4.1,1.2c-1.3,0.9-2.5,2.4-1.7,5c0.6,2,4.2,3.8,5.4,4.4
			c3,1.5,2.3,3.8,2.3,3.8c-0.3,1-1.2,1.6-2.3,1.9c-0.7,0.2-3.6,0.2-4-0.5c-0.3-0.5-0.6-3.2-0.6-3.2l-0.7,0.2l-0.5,4.6
			c0,0,1.6,0.7,4.1,0.8c1.9,0.1,3.5-0.4,4.8-1.1c1.6-0.9,2.5-2.3,2.4-4.1C21.5,46.2,20.7,45.3,20.7,45.3z M118.5,35
			c-2.7,0-4.9,0.9-6.5,2.6c-1.6,1.7-2.4,4-2.4,6.7c0,2.5,0.8,4.7,2.3,6.4c1.6,1.7,3.6,2.6,6.2,2.6h0c2.7,0,4.8-1,6.4-2.9
			c1.5-1.8,2.2-4.1,2.2-6.8c0-2.5-0.7-4.5-2.2-6.1C123,35.8,121,35,118.5,35z M123.4,44.8c0,1.9-0.4,3.5-1.1,4.7
			c-0.9,1.5-2.2,2.2-4,2.2c-2,0-3.4-1-4.4-3c-0.7-1.5-1.1-3.4-1.1-5.7c0-1.8,0.4-3.3,1.3-4.5c1-1.3,2.3-2,4-2
			C121.7,36.6,123.4,39.2,123.4,44.8L123.4,44.8z M81.2,35.5c-1.2,0-2.4-0.1-3.5-0.2l-0.2,0v0.6c0,0,2.2,0.3,2.5,1.3
			c0.2,1.1,0.3,2.6,0.3,4.4c0,0.6,0,6.9-1,8.2c-0.7,0.9-1.8,1.5-3.2,1.5c-1.9,0-3-0.5-3.7-1.4c-1.8-2.2-0.9-11.4-0.9-12.1
			c0-1.3,2.8-1.8,2.8-1.8v-0.6l-0.2,0c-1.4,0.1-2.8,0.2-4.3,0.2c-1.4,0-2.8-0.1-4.1-0.2l-0.2,0v0.6c0,0,3,0.6,3,2.1
			c0,0.5-0.5,5.5-0.4,7.6c0,2.3,0.4,4.1,1.3,5.3c1.1,1.6,3.6,2.4,6.2,2.4c2.8,0,4.8-1,5.9-2.9c0.7-1.3,1-3.3,1-6c0-0.1,0-0.3,0-0.4
			c0-2,0-3.6,0-4.7c0-1.1,0-1.7,0-1.9c0.1-1.3,2.3-1.5,2.3-1.5v-0.6l-0.2,0C83.5,35.4,82.3,35.5,81.2,35.5z M96.4,43.1h-1.7v-6.1
			l2.3,0h0.1c2.5,0,3.7,1,3.7,3.1c0,1.3-0.4,2.1-1.3,2.5C98.9,42.9,97.8,43.1,96.4,43.1z M102.5,48.6c-0.9-1.5-1.8-3-2.7-4.4
			c2.8-0.5,4.1-2.1,4.1-4.6c0-1.5-0.7-2.7-2-3.4c-1-0.6-2.4-0.9-4-0.9c-0.6,0-1.6,0-2.8,0.1c-1.2,0-2.5,0.1-3.1,0.1
			c-1,0-2,0-2.8-0.1l-0.2,0V36c0,0,2.6,0.2,2.9,1.4c0,0.2,0.1,0.9,0.1,2.1v9.8c0,0.9-0.1,1.7-0.2,1.9c-0.2,0.8-2.3,1.1-2.3,1.1
			L89.2,53l0.2,0c1.4-0.1,2.8-0.2,4.1-0.2s2.6,0.1,3.9,0.2l0.2,0v-0.5c0,0-1.9-0.5-2.5-1.1c-0.3-0.2-0.4-0.5-0.4-1.3
			c0-0.1,0-0.7,0-1.3c0-0.6,0-1,0-1.4v-2.7h1.8c2.1,2.8,3.7,5.5,5.4,8.3L102,53l0.1,0c0.7-0.1,1.4-0.1,2.1-0.1c0.7,0,1.5,0,2.2,0.1
			l0.2,0v-0.7l-0.1,0C105.3,52.1,104,50.9,102.5,48.6z M141.2,45.4l-0.1,0.1L141.2,45.4c-0.1-0.1-0.1-0.1-0.2-0.2l0,0
			c-0.5-0.6-1.1-1-1.6-1.3c-1.1-0.6-2.1-1-3.3-1.6c-1.4-0.8-2.1-1.7-2.1-2.7c0-0.8,0.3-1.5,0.9-2.1c0.1-0.1,0.2-0.2,0.3-0.2
			c0,0,0,0,0.1,0c0.2-0.2,0.5-0.2,0.8-0.3c0.3-0.1,0.7-0.2,1.3-0.2c0.3,0,0.7,0,1.1,0.1c0.3,0,0.7,0.1,1.1,0.2l1,2.8l0.5,0l0.2-4
			l-0.1,0c-1.3-0.6-2.6-0.9-4-0.9c-1.6,0-3,0.4-4.1,1.2c-1.3,0.9-1.9,2.2-1.9,3.8c0,0.5,0.1,1,0.3,1.4c0.6,1.3,1.7,2.2,2.3,2.5
			c0.1,0,0.2,0.1,0.2,0.1v0l0.1,0c1,0.6,1.9,1.2,3,1.8c1.4,0.8,2.1,1.7,2.1,2.7c0,0.3,0,0.7-0.1,1l0,0c-0.5,1.7-2.4,1.8-2.4,1.8
			c-0.5,0.1-0.9,0.1-1.3,0.1c-1.5,0-2.6-0.6-2.6-0.6l-0.5-3.2l-0.6,0.1l-0.1,0l-0.5,4.6l0.1,0c1.3,0.5,2.6,0.8,4,0.8
			c1.9,0,3.5-0.4,4.8-1.1c1.6-0.9,2.4-2.3,2.4-4.1C142,47,141.7,46.1,141.2,45.4z"/>
	</g>
</g>
</svg>
