<?xml version="1.0" encoding="utf-8"?>
<!-- Generator: Adobe Illustrator 19.2.0, SVG Export Plug-In . SVG Version: 6.00 Build 0)  -->
<svg version="1.1" id="Layer_1" xmlns="http://www.w3.org/2000/svg" xmlns:xlink="http://www.w3.org/1999/xlink" x="0px" y="0px"
	 viewBox="0 0 136.3 67.4" style="enable-background:new 0 0 136.3 67.4;" xml:space="preserve">
<style type="text/css">
	.st0{fill:#9FC53E;}
	.st1{fill:url(#SVGID_1_);}
	.st2{fill:url(#SVGID_2_);}
	.st3{fill:url(#SVGID_3_);}
	.st4{fill:url(#SVGID_4_);}
	.st5{fill:#40AA3D;}
	.st6{fill:#214231;}
</style>
<g>
	<path class="st0" d="M57.8,21.9c0,0,6.5,0.2,9.5-4.8c0,0,3.5-5-1.8-7.1c0,0-1.8-0.3-1.4-1.4c0,0,1-1.7,3.8-0.1
		c1,0.6,3.4,2.8,2.5,6.1C70.2,15.6,67.7,22.6,57.8,21.9z"/>
	
		<radialGradient id="SVGID_1_" cx="58.0049" cy="48.9364" r="6.4884" gradientTransform="matrix(1 0 0 -1 0 69.4421)" gradientUnits="userSpaceOnUse">
		<stop  offset="0" style="stop-color:#369F3B"/>
		<stop  offset="1" style="stop-color:#1D6930"/>
	</radialGradient>
	<path class="st1" d="M63.4,13.1c0,0-8.7,0.3-10.6,8.4c-0.1,0.5-1,5.4,5.3,6.5c0.8,0.1,2.2-0.1,2.3-1.3c0,0,0.1-0.9-2.1-0.7
		c-1.1,0.1-3.8-1.3-3.6-4.7C54.7,21.2,55.3,14.3,63.4,13.1z"/>
	
		<linearGradient id="SVGID_2_" gradientUnits="userSpaceOnUse" x1="40.8827" y1="50.6874" x2="67.576" y2="50.6874" gradientTransform="matrix(1 0 0 -1 0 69.4421)">
		<stop  offset="0" style="stop-color:#91C03C"/>
		<stop  offset="1" style="stop-color:#1D7633"/>
	</linearGradient>
	<path class="st2" d="M67.6,14.1c0,0-4.4-5.5-14.3-1.5c0,0-8.2,3.2-8.7,9.9c0,0,0,1.7,0.7,2.6c0,0,0.9,1.5-1,2.5
		c-0.4,0.2-2.2,0.6-3-1.5c0,0-1.7-4,1.7-8.7c0,0,8-10.5,20.3-7C63.4,10.4,66.5,11.4,67.6,14.1z"/>
	
		<linearGradient id="SVGID_3_" gradientUnits="userSpaceOnUse" x1="42.6982" y1="59.1445" x2="76.366" y2="59.1445" gradientTransform="matrix(1 0 0 -1 0 69.4421)">
		<stop  offset="0" style="stop-color:#8CBF48"/>
		<stop  offset="1" style="stop-color:#094B29"/>
	</linearGradient>
	<path class="st3" d="M68.9,20.6c0,0,8.8-6.4,3.6-12.3c0,0-5.9-7.6-17.8-2.8c0,0-3.4,1.1-8,5.8c0,0-2.3,2.2-3.7,0.8
		c-0.8-0.8-0.2-2.5,1-3.6c0.7-0.6,7.3-7.8,18.7-8.5c0,0,9.4-0.1,12.5,6.9C75.3,6.9,80.3,15.8,68.9,20.6z"/>
	
		<linearGradient id="SVGID_4_" gradientUnits="userSpaceOnUse" x1="47.47" y1="46.7072" x2="75.5617" y2="46.7072" gradientTransform="matrix(1 0 0 -1 0 69.4421)">
		<stop  offset="0" style="stop-color:#97C241"/>
		<stop  offset="1" style="stop-color:#46AB3C"/>
	</linearGradient>
	<path class="st4" d="M56,13.3c0,0-10.1,6.3-5,12c0,0,3.9,5.9,12.3,2.2l11.8-5.3c0,0,1.5,0.7-0.8,3.1c0,0-1.9,1.7-5.5,3.5
		c0,0-9.2,6.2-17.5,1.8c0,0-6.6-4.1-2.4-12C48.9,18.6,51.3,14.7,56,13.3z"/>
	<path class="st5" d="M77,20.3c0,0,2.8,1.5,7.6-2.4c0,0,3.9-3.2,1.9-7.4c0,0-1.3-1.3,0.3-2c0,0,1.3-0.9,2.3,1.8c0,0,1.6,4.5-3.5,8.8
		c0,0-5,3.8-9,1.8L77,20.3z"/>
	<path class="st6" d="M56.6,22.3c0,0,1,1.2,1.8,1.8c0,0,0.8,0.8,2,1.3c0,0,2.2,0.4,2.7,1.9c0,0,1.9,4,0.4,8.9c0,0-3.8,1.2-11.8,2.1
		l-9.1,0.9c0,0-0.2,0.1,0.1,0.2H88l-2.7-1.5c0,0-0.7-0.3-2.1-0.2c0,0-10.6-0.4-12.2-1.4c-0.5-0.3-1.5-0.6-2-3.4
		c-0.4-2.5-0.4-4.2,0.4-7c0,0,2.8-1.6,4.3-2.5c1.5-0.8,5.6-3.6,7.8-8.9C83.8,9.2,82,4.4,80.5,3.5C79.7,3,78.3,2.1,77,3.9
		c-0.2,0.4-0.7,1.3,0.8,2.9c0,0,3.5,5.3-2.8,12c0,0-3.2,4.6-10.5,5.5C64.5,24.3,60.4,25.4,56.6,22.3z"/>
	<path class="st6" d="M13.5,47.5c-0.3-2.5-3.1-2.7-3.1-2.7H0l0,11.7l2.2,0v-4.5c0,0,6.9,0.1,8.6-0.2c2.7-0.4,2.7-2.9,2.7-2.9
		S13.6,48.2,13.5,47.5z M11.3,48.7c0,0.6-0.1,1.3-1.5,1.4c-0.8,0.1-7.4,0-7.4,0l0-3.4c0,0,5.8-0.1,7.5,0.1
		C11.5,47,11.3,48.4,11.3,48.7z"/>
	<path class="st6" d="M26.9,52c2.6-0.7,2.7-2.6,2.7-3c0-0.5,0-0.8,0-1.6c-0.1-1.6-2.1-2.6-3.3-2.6c-1,0-10.3-0.1-10.3-0.1v11.8h2.4
		v-4.4l5.9,0l3,4.3h2.6L26.9,52z M18.4,50v-3.3c0,0,5,0,7.2,0.1c1.5,0,1.8,1.2,1.7,1.7c0,0.4,0,1.3-1.6,1.5
		C24.3,50.2,18.4,50,18.4,50z"/>
	<path class="st6" d="M115.9,52c2.6-0.7,2.7-2.6,2.7-3c0-0.5,0-0.8,0-1.6c-0.1-1.6-2.1-2.6-3.3-2.6c-1,0-10.3-0.1-10.3-0.1v11.8h2.4
		v-4.4l5.9,0l3,4.3h2.6L115.9,52z M107.4,50.1v-3.3c0,0,5,0,7.2,0.1c1.5,0,1.8,1.2,1.7,1.7c0,0.4,0,1.3-1.6,1.5
		C113.4,50.3,107.4,50.1,107.4,50.1z"/>
	<polygon class="st6" points="45.5,46.6 45.5,44.6 33.3,44.6 33.3,56.4 45.9,56.4 45.9,54.5 35.4,54.5 35.4,51.4 42.4,51.4 
		42.4,49.4 35.6,49.4 35.6,46.7 	"/>
	<polygon class="st6" points="47.1,44.6 49.6,44.6 54.9,54.5 60.2,44.7 62.7,44.7 56.2,56.5 53.6,56.5 	"/>
	<polygon class="st6" points="64.9,44.7 67.2,44.7 67.2,56.4 64.8,56.4 	"/>
	<path class="st6" d="M93.9,44.3c-4.3,0-7.8,2.8-7.8,6.3s3.5,6.3,7.8,6.3c4.3,0,7.8-2.8,7.8-6.3S98.3,44.3,93.9,44.3z M94,54.7
		c-3,0-5.5-1.9-5.5-4.2c0-2.3,2.4-4.2,5.5-4.2c3,0,5.5,1.9,5.5,4.2C99.4,52.9,97,54.7,94,54.7z"/>
	<polygon class="st6" points="129.6,54.5 124.2,54.5 128.4,46.6 133.6,56.3 136.2,56.3 129.9,44.7 127,44.7 120.5,56.4 130.7,56.4 	
		"/>
	<path class="st6" d="M82,47.6l1.4-1.5c0,0-2.4-1.8-6.4-1.7c0,0-6.1-0.3-6.2,3.4c0,0-0.6,2.8,3.7,3.2c0,0,4.6,0.2,5.7,0.5
		c0,0,1.6,0.4,1.5,1.6c0,0,0.2,1.6-4.2,1.8c0,0-3.7,0-5.9-1.8l-1.2,1.5c0,0,2,2.2,7.1,2.1c0,0,4.7,0.4,6.4-2.5c0,0,1.1-2.8-1.4-4.1
		c-0.6-0.3-0.7-0.6-4.6-1c0,0-3.3-0.1-3.9-0.5c0,0-1.1-0.1-0.8-1.2c0,0,0.1-1.1,3.9-1.1C76.9,46.4,80.1,46.2,82,47.6z"/>
	<g>
		<path class="st6" d="M86.8,66.5c0.3,0.2,0.6,0.3,1,0.3c0.6,0,0.9-0.3,0.9-0.8c0-0.4-0.2-0.7-0.8-0.9c-0.7-0.3-1.2-0.7-1.2-1.3
			c0-0.7,0.6-1.2,1.4-1.2c0.5,0,0.8,0.1,1,0.2L89,63.3c-0.1-0.1-0.4-0.2-0.8-0.2c-0.6,0-0.8,0.4-0.8,0.7c0,0.4,0.3,0.6,0.9,0.9
			c0.8,0.3,1.1,0.7,1.1,1.3c0,0.7-0.5,1.3-1.6,1.3c-0.4,0-0.9-0.1-1.1-0.3L86.8,66.5z"/>
	</g>
	<g>
		<path class="st6" d="M96,65.1h-1.7v1.6h1.9v0.5h-2.5v-4.5h2.4v0.5h-1.8v1.4H96V65.1z"/>
	</g>
	<g>
		<path class="st6" d="M109.5,62.7v2.7c0,1,0.5,1.5,1.2,1.5c0.8,0,1.2-0.5,1.2-1.5v-2.7h0.7v2.7c0,1.4-0.8,2-1.9,2
			c-1.1,0-1.8-0.5-1.8-2v-2.7L109.5,62.7L109.5,62.7z"/>
	</g>
	<g>
		<path class="st6" d="M104.3,67.2c-0.3,0.1-0.9,0.3-1.6,0.3c-0.8,0-1.4-0.2-1.9-0.6c-0.4-0.4-0.7-1.1-0.7-1.8c0-1.5,1-2.5,2.7-2.5
			c0.6,0,1,0.1,1.3,0.2l-0.2,0.5c-0.3-0.1-0.6-0.2-1.1-0.2c-1.2,0-2,0.7-2,2c0,1.2,0.8,2,1.9,2c0.4,0,0.7-0.1,0.9-0.1v-1.5v-0.6h0.6
			L104.3,67.2z"/>
	</g>
	<g>
		<path class="st6" d="M129.5,65c0,1.6-1.1,2.4-2.5,2.4c-1.4,0-2.4-0.9-2.4-2.3c0-1.5,1.1-2.4,2.5-2.4
			C128.5,62.7,129.5,63.6,129.5,65z M125.3,65.1c0,1,0.6,1.9,1.7,1.9c1.1,0,1.7-0.9,1.7-1.9c0-0.9-0.6-1.9-1.7-1.9
			C125.9,63.2,125.3,64.1,125.3,65.1z"/>
	</g>
	<g>
		<path class="st6" d="M133.6,66.6c0.3,0.2,0.6,0.3,1,0.3c0.7,0,1-0.3,1-0.8c0-0.4-0.3-0.7-0.9-0.9c-0.8-0.3-1.3-0.7-1.3-1.4
			c0-0.7,0.6-1.3,1.6-1.3c0.5,0,0.9,0.1,1.1,0.2l-0.2,0.5c-0.2-0.1-0.5-0.2-0.9-0.2c-0.7,0-0.9,0.4-0.9,0.7c0,0.4,0.3,0.7,1,0.9
			c0.8,0.3,1.3,0.7,1.3,1.4c0,0.7-0.6,1.4-1.7,1.4c-0.5,0-0.9-0.1-1.2-0.3L133.6,66.6z"/>
	</g>
	<g>
		<path class="st6" d="M116.9,62.6h1.5c1.3,0,1.6,0.8,1.6,1.3c0,0.9-0.6,1.1-1,1.3l1.6,2.1h-0.8l-1.5-2.1h-0.7v2.1h-0.7V62.6z
			 M117.6,63.1v1.6c0.4,0,0.8,0,1.1,0c0.3-0.1,0.7-0.2,0.7-0.7c0-0.6-0.4-0.8-1.1-0.8L117.6,63.1L117.6,63.1z"/>
	</g>
</g>
</svg>
